<svg width="239" height="242" viewBox="0 0 239 242" fill="none" xmlns="http://www.w3.org/2000/svg">
<path d="M100.475 200.263C99.1415 208.99 92.0664 209.357 84.42 207.599C73.6034 205.109 56.4468 187.504 53.2888 178.24C50.3903 169.738 52.1876 162.291 58.8166 160.084" fill="white"/>
<path d="M100.475 200.263C99.1415 208.99 92.0664 209.357 84.42 207.599C73.6034 205.109 56.4468 187.504 53.2888 178.24C50.3903 169.738 52.1876 162.291 58.8166 160.084" stroke="black" stroke-width="4.99999" stroke-linecap="round" stroke-linejoin="round"/>
<path d="M44.5886 88.6029C34.4261 92.96 43.5673 108.622 55.68 123.298C60.3833 128.997 55.6112 156.911 64.8681 172.305C70.8901 182.321 89.4809 199.139 100.417 199.835C119.142 201.025 134.215 194.95 148.257 183.588C153.234 179.56 158.087 174.261 161.585 169.537C173.072 154.024 216.267 129.175 218.433 124.546C224.453 111.687 207.115 107.634 198.908 112.262C194.933 114.504 163.835 127.522 167.452 123.07C176.337 112.132 188.349 100.037 200.345 89.263C218.295 73.1409 188.874 56.3142 172.221 71.5825C164.42 78.735 157.066 83.79 140.031 100.161C145.196 87.9801 151.891 69.8778 158.293 58.851C168.849 40.6677 138.11 31.0839 125.67 53.5872C117.199 68.9122 104.956 98.1942 84.6304 120.119C81.9608 105.25 75.2424 75.4586 44.5896 88.6002L44.5886 88.6029Z" fill="white" stroke="black" stroke-width="4.99999" stroke-linecap="round" stroke-linejoin="round"/>
<path d="M138.247 97.9924C131.092 112.336 130.7 121.335 129.925 125.433C134.166 116.318 135 113.893 140.259 104.51C141.151 102.92 142.454 101.212 144.363 99.3966L138.247 97.9924Z" fill="black"/>
<path d="M165.481 121.534C159.561 128.833 154.173 139.055 152.338 146.719C155.511 142.687 160.903 135.71 165.606 129.486C166.882 127.798 168.434 126.603 171.344 125.829C169.099 124.815 167.351 123.097 165.481 121.534Z" fill="black"/>
<path d="M97.219 185.317C108.685 179.384 110.833 176.707 115.892 173.013" stroke="black" stroke-width="4.99999" stroke-linecap="round" stroke-linejoin="round"/>
<path d="M87.8174 178.551C98.4938 169.068 102.733 163.502 109.27 156.539" stroke="black" stroke-width="4.99999" stroke-linecap="round" stroke-linejoin="round"/>
<path d="M76.8412 170.144C83.2481 162.695 85.5778 158.586 89.1709 153.441" stroke="black" stroke-width="4.99999" stroke-linecap="round" stroke-linejoin="round"/>
</svg>
