<svg width="164" height="172" viewBox="0 0 164 172" fill="none" xmlns="http://www.w3.org/2000/svg">
<path d="M33.3879 113.636C25.6598 117.845 27.7486 124.595 32.015 131.18C38.0523 140.494 60.4652 150.591 70.2407 150.407C79.2355 150.198 85.5742 146.04 85.4217 138.986" fill="white"/>
<path d="M33.3879 113.636C25.6598 117.845 27.7486 124.595 32.015 131.18C38.0523 140.494 60.4652 150.591 70.2407 150.407C79.2355 150.198 85.5742 146.04 85.4217 138.986" stroke="black" stroke-width="4.99983" stroke-linecap="round" stroke-linejoin="round"/>
<path d="M133.647 107.695C124.897 124.961 94.0291 142.108 71.8327 137.538C60.4291 135.076 38.2284 123.538 33.8487 113.475C26.2985 96.3229 26.8902 80.0329 32.758 62.951C34.8418 56.9044 38.1453 50.5669 41.409 45.628C54.5747 25.3464 70.1601 13.602 83.0315 24.2701C97.2847 9.64988 121.372 29.0324 113.939 42.1998C136.208 34.8117 147.672 60.3153 129.123 73.7954C130.754 77.8788 142.726 89.766 133.647 107.695Z" fill="white" stroke="black" stroke-width="4.99983" stroke-linecap="round" stroke-linejoin="round"/>
<path d="M111.363 41.5389C99.5342 52.3531 98.0331 58.8285 95.7892 62.4017C103.058 55.3992 104.713 53.4317 112.988 46.568C114.397 45.4019 115.989 44.3179 118.568 43.5945L112.6 38.8684C112.74 38.5218 112.079 40.6506 111.363 41.5389Z" fill="black"/>
<path d="M82.2572 21.6187C76.0354 28.6736 69.1857 38.0526 67.0439 45.6279C70.4081 41.6983 79.7807 32.1168 84.7276 26.0984C84.74 26.1084 84.7069 26.1035 82.2572 21.6187Z" fill="black"/>
<path d="M48.5446 111.582C50.2124 98.7562 51.9999 95.8079 53.7163 89.8336" stroke="black" stroke-width="4.99983" stroke-linecap="round" stroke-linejoin="round"/>
<path d="M58.1166 118.105C63.3903 104.803 67.1846 98.8907 71.4646 90.4162" stroke="black" stroke-width="4.99983" stroke-linecap="round" stroke-linejoin="round"/>
<path d="M69.7698 125.543C74.5895 116.954 77.6706 113.331 81.228 108.277" stroke="black" stroke-width="4.99983" stroke-linecap="round" stroke-linejoin="round"/>
<path d="M132.15 74.1648C117.672 89.6588 119.04 99.8302 117.417 110.976C117.349 98.4276 111.738 90.9236 127.326 72.0474L132.15 74.1648Z" fill="black"/>
</svg>
