<svg width="204" height="212" viewBox="0 0 204 212" fill="none" xmlns="http://www.w3.org/2000/svg">
<path d="M76.6509 180.235C75.3386 188.937 68.2812 189.283 60.6335 187.526C49.8163 185.039 32.6621 167.43 29.4918 158.181C26.6113 149.657 28.3513 142.278 35.0316 140.009" fill="white"/>
<path d="M76.6509 180.235C75.3386 188.937 68.2812 189.283 60.6335 187.526C49.8163 185.039 32.6621 167.43 29.4918 158.181C26.6113 149.657 28.3513 142.278 35.0316 140.009" stroke="black" stroke-width="4.99993" stroke-linecap="round" stroke-linejoin="round"/>
<path d="M47.9429 83.9902C34.7108 98.1181 29.1545 132.99 41.0411 152.285C47.2546 162.159 65.6904 179.075 76.6443 179.749C95.3452 180.977 110.451 174.849 124.496 163.493C129.465 159.467 134.291 154.195 137.816 149.438C150.499 131.854 145.899 111.406 143.65 103.02C152.539 92.0782 164.552 79.9811 176.55 69.2048C194.496 53.0862 165.077 36.2592 148.42 51.5309C140.623 58.6804 133.264 63.7396 116.23 80.1087C121.399 67.9252 128.094 49.8226 134.492 38.7995C145.052 20.6131 114.309 11.0324 101.868 33.5377C93.3963 48.864 89.3535 61.9922 81.3459 76.6471C76.9508 76.5108 61.6855 69.3264 47.9429 83.9902Z" fill="white" stroke="black" stroke-width="4.99993" stroke-linecap="round" stroke-linejoin="round"/>
<path d="M114.423 77.9653C107.269 92.3077 106.88 101.302 106.07 105.443C110.338 96.2966 111.175 93.8657 116.431 84.4875C117.327 82.893 118.628 81.188 120.54 79.3692L114.423 77.9653Z" fill="black"/>
<path d="M141.657 101.509C135.73 108.814 130.346 119.032 128.517 126.69C134.774 118.647 139.706 112.29 145.488 104.489C145.468 104.472 143.52 103.079 141.654 101.513L141.657 101.509Z" fill="black"/>
<path d="M73.3959 165.292C84.878 159.338 87.0372 156.65 92.0643 152.994" stroke="black" stroke-width="4.99993" stroke-linecap="round" stroke-linejoin="round"/>
<path d="M63.9942 158.529C74.6911 149.024 78.9489 143.436 85.4486 136.516" stroke="black" stroke-width="4.99993" stroke-linecap="round" stroke-linejoin="round"/>
<path d="M53.0182 150.122C59.4413 142.655 61.792 138.521 65.3242 133.449" stroke="black" stroke-width="4.99993" stroke-linecap="round" stroke-linejoin="round"/>
<path d="M79.9631 73.9267C70.355 92.8312 60.3292 95.0252 50.4097 100.362C62.2255 96.1342 71.1962 98.8403 83.603 77.7362L79.9631 73.9267Z" fill="black"/>
</svg>
